<svg id="visual" viewBox="0 0 900 600" width="900" height="600" xmlns="http://www.w3.org/2000/svg" xmlns:xlink="http://www.w3.org/1999/xlink" version="1.1"><g transform="translate(442.247080825771 306.9191491286922)"><path d="M62.1 -84.3C81.1 -71.7 97.6 -54.4 110.3 -31.9C123 -9.5 131.9 18.1 127.6 44.5C123.2 70.9 105.7 96.1 82.2 98.5C58.8 100.9 29.4 80.5 2 77.8C-25.5 75.1 -50.9 90.1 -74.2 87.7C-97.5 85.3 -118.7 65.3 -111.9 45.9C-105.1 26.4 -70.4 7.4 -61.2 -19.6C-52 -46.6 -68.3 -81.5 -62.4 -98.4C-56.4 -115.3 -28.2 -114.2 -3.3 -109.6C21.6 -105 43.1 -97 62.1 -84.3" fill="#00ba12"></path></g></svg>