<svg id="visual" viewBox="0 0 960 300" width="960" height="300" xmlns="http://www.w3.org/2000/svg" xmlns:xlink="http://www.w3.org/1999/xlink" version="1.1"><rect x="0" y="0" width="960" height="300" fill="#000000"></rect><path d="M0 191L16 189.8C32 188.7 64 186.3 96 184.3C128 182.3 160 180.7 192 184.3C224 188 256 197 288 198.7C320 200.3 352 194.7 384 191.7C416 188.7 448 188.3 480 189.8C512 191.3 544 194.7 576 196.3C608 198 640 198 672 198.5C704 199 736 200 768 200.5C800 201 832 201 864 198.3C896 195.7 928 190.3 944 187.7L960 185L960 0L944 0C928 0 896 0 864 0C832 0 800 0 768 0C736 0 704 0 672 0C640 0 608 0 576 0C544 0 512 0 480 0C448 0 416 0 384 0C352 0 320 0 288 0C256 0 224 0 192 0C160 0 128 0 96 0C64 0 32 0 16 0L0 0Z" fill="#000000"></path><path d="M0 159L16 155.5C32 152 64 145 96 144.7C128 144.3 160 150.7 192 153.3C224 156 256 155 288 150.3C320 145.7 352 137.3 384 134C416 130.7 448 132.3 480 137.7C512 143 544 152 576 153.3C608 154.7 640 148.3 672 148C704 147.7 736 153.3 768 152C800 150.7 832 142.3 864 141.5C896 140.7 928 147.3 944 150.7L960 154L960 0L944 0C928 0 896 0 864 0C832 0 800 0 768 0C736 0 704 0 672 0C640 0 608 0 576 0C544 0 512 0 480 0C448 0 416 0 384 0C352 0 320 0 288 0C256 0 224 0 192 0C160 0 128 0 96 0C64 0 32 0 16 0L0 0Z" fill="#004600"></path><path d="M0 102L16 98C32 94 64 86 96 85.2C128 84.3 160 90.7 192 95.2C224 99.7 256 102.3 288 105.2C320 108 352 111 384 108.2C416 105.3 448 96.7 480 91.3C512 86 544 84 576 82.3C608 80.7 640 79.3 672 81.5C704 83.7 736 89.3 768 89.8C800 90.3 832 85.7 864 84.2C896 82.7 928 84.3 944 85.2L960 86L960 0L944 0C928 0 896 0 864 0C832 0 800 0 768 0C736 0 704 0 672 0C640 0 608 0 576 0C544 0 512 0 480 0C448 0 416 0 384 0C352 0 320 0 288 0C256 0 224 0 192 0C160 0 128 0 96 0C64 0 32 0 16 0L0 0Z" fill="#138101"></path><path d="M0 46L16 45.7C32 45.3 64 44.7 96 45.8C128 47 160 50 192 50.2C224 50.3 256 47.7 288 45.2C320 42.7 352 40.3 384 42.8C416 45.3 448 52.7 480 53.8C512 55 544 50 576 46.5C608 43 640 41 672 43.3C704 45.7 736 52.3 768 56.2C800 60 832 61 864 61.5C896 62 928 62 944 62L960 62L960 0L944 0C928 0 896 0 864 0C832 0 800 0 768 0C736 0 704 0 672 0C640 0 608 0 576 0C544 0 512 0 480 0C448 0 416 0 384 0C352 0 320 0 288 0C256 0 224 0 192 0C160 0 128 0 96 0C64 0 32 0 16 0L0 0Z" fill="#39bf00"></path></svg>